<svg width="41" height="40" viewBox="0 0 41 40" fill="none" xmlns="http://www.w3.org/2000/svg">
<rect x="0.125" width="40" height="40" rx="20" fill="#6F6E6E"/>
<g clip-path="url(#clip0_105_194)">
<path d="M12 16C12 14.9391 12.4214 13.9217 13.1716 13.1716C13.9217 12.4214 14.9391 12 16 12H24C25.0609 12 26.0783 12.4214 26.8284 13.1716C27.5786 13.9217 28 14.9391 28 16V24C28 25.0609 27.5786 26.0783 26.8284 26.8284C26.0783 27.5786 25.0609 28 24 28H16C14.9391 28 13.9217 27.5786 13.1716 26.8284C12.4214 26.0783 12 25.0609 12 24V16Z" stroke="white" stroke-width="2" stroke-linecap="round" stroke-linejoin="round"/>
<path d="M17 20C17 20.7956 17.3161 21.5587 17.8787 22.1213C18.4413 22.6839 19.2044 23 20 23C20.7956 23 21.5587 22.6839 22.1213 22.1213C22.6839 21.5587 23 20.7956 23 20C23 19.2044 22.6839 18.4413 22.1213 17.8787C21.5587 17.3161 20.7956 17 20 17C19.2044 17 18.4413 17.3161 17.8787 17.8787C17.3161 18.4413 17 19.2044 17 20Z" stroke="white" stroke-width="2" stroke-linecap="round" stroke-linejoin="round"/>
<path d="M24.5 15.5V15.51" stroke="white" stroke-width="2" stroke-linecap="round" stroke-linejoin="round"/>
</g>
<defs>
<clipPath id="clip0_105_194">
<rect x="8" y="8" width="24" height="24" fill="white"/>
</clipPath>
</defs>
</svg>
