<svg width="41" height="40" viewBox="0 0 41 40" fill="none" xmlns="http://www.w3.org/2000/svg">
<rect x="0.125" width="40" height="40" rx="20" fill="#6F6E6E"/>
<g clip-path="url(#clip0_105_224)">
<path d="M12 14C12 13.4696 12.2107 12.9609 12.5858 12.5858C12.9609 12.2107 13.4696 12 14 12H26C26.5304 12 27.0391 12.2107 27.4142 12.5858C27.7893 12.9609 28 13.4696 28 14V26C28 26.5304 27.7893 27.0391 27.4142 27.4142C27.0391 27.7893 26.5304 28 26 28H14C13.4696 28 12.9609 27.7893 12.5858 27.4142C12.2107 27.0391 12 26.5304 12 26V14Z" stroke="white" stroke-width="2" stroke-linecap="round" stroke-linejoin="round"/>
<path d="M16 19V24" stroke="white" stroke-width="2" stroke-linecap="round" stroke-linejoin="round"/>
<path d="M16 16V16.01" stroke="white" stroke-width="2" stroke-linecap="round" stroke-linejoin="round"/>
<path d="M20 24V19" stroke="white" stroke-width="2" stroke-linecap="round" stroke-linejoin="round"/>
<path d="M24 24V21C24 20.4696 23.7893 19.9609 23.4142 19.5858C23.0391 19.2107 22.5304 19 22 19C21.4696 19 20.9609 19.2107 20.5858 19.5858C20.2107 19.9609 20 20.4696 20 21" stroke="white" stroke-width="2" stroke-linecap="round" stroke-linejoin="round"/>
</g>
<defs>
<clipPath id="clip0_105_224">
<rect width="24" height="24" fill="white" transform="translate(8 8)"/>
</clipPath>
</defs>
</svg>
