<svg width="41" height="40" viewBox="0 0 41 40" fill="none" xmlns="http://www.w3.org/2000/svg">
<rect x="0.125" width="40" height="40" rx="20" fill="#6F6E6E"/>
<g clip-path="url(#clip0_105_212)">
<path d="M16 28L20 19" stroke="white" stroke-width="2" stroke-linecap="round" stroke-linejoin="round"/>
<path d="M18.7 22C19.137 23.263 20.13 24 21.25 24C23.321 24 25 22.446 25 20C25.0009 19.2698 24.8418 18.5483 24.5339 17.8862C24.2261 17.2241 23.777 16.6374 23.2182 16.1675C22.6593 15.6975 22.0044 15.3556 21.2993 15.1659C20.5942 14.9762 19.8561 14.9432 19.1369 15.0692C18.4177 15.1953 17.7348 15.4773 17.1362 15.8955C16.5377 16.3137 16.038 16.8579 15.6723 17.4899C15.3066 18.1219 15.0838 18.8264 15.0194 19.5537C14.9551 20.281 15.0509 21.0136 15.3 21.7" stroke="white" stroke-width="2" stroke-linecap="round" stroke-linejoin="round"/>
<path d="M11 20C11 21.1819 11.2328 22.3522 11.6851 23.4442C12.1374 24.5361 12.8003 25.5282 13.636 26.364C14.4718 27.1997 15.4639 27.8626 16.5558 28.3149C17.6478 28.7672 18.8181 29 20 29C21.1819 29 22.3522 28.7672 23.4442 28.3149C24.5361 27.8626 25.5282 27.1997 26.364 26.364C27.1997 25.5282 27.8626 24.5361 28.3149 23.4442C28.7672 22.3522 29 21.1819 29 20C29 18.8181 28.7672 17.6478 28.3149 16.5558C27.8626 15.4639 27.1997 14.4718 26.364 13.636C25.5282 12.8003 24.5361 12.1374 23.4442 11.6851C22.3522 11.2328 21.1819 11 20 11C18.8181 11 17.6478 11.2328 16.5558 11.6851C15.4639 12.1374 14.4718 12.8003 13.636 13.636C12.8003 14.4718 12.1374 15.4639 11.6851 16.5558C11.2328 17.6478 11 18.8181 11 20Z" stroke="white" stroke-width="2" stroke-linecap="round" stroke-linejoin="round"/>
</g>
<defs>
<clipPath id="clip0_105_212">
<rect width="24" height="24" fill="white" transform="translate(8 8)"/>
</clipPath>
</defs>
</svg>
