<svg width="41" height="40" viewBox="0 0 41 40" fill="none" xmlns="http://www.w3.org/2000/svg">
<rect x="0.125" width="40" height="40" rx="20" fill="#6F6E6E"/>
<g clip-path="url(#clip0_105_233)">
<path d="M11 20C11 21.1819 11.2328 22.3522 11.6851 23.4442C12.1374 24.5361 12.8003 25.5282 13.636 26.364C14.4718 27.1997 15.4639 27.8626 16.5558 28.3149C17.6478 28.7672 18.8181 29 20 29C21.1819 29 22.3522 28.7672 23.4442 28.3149C24.5361 27.8626 25.5282 27.1997 26.364 26.364C27.1997 25.5282 27.8626 24.5361 28.3149 23.4442C28.7672 22.3522 29 21.1819 29 20C29 18.8181 28.7672 17.6478 28.3149 16.5558C27.8626 15.4639 27.1997 14.4718 26.364 13.636C25.5282 12.8003 24.5361 12.1374 23.4442 11.6851C22.3522 11.2328 21.1819 11 20 11C18.8181 11 17.6478 11.2328 16.5558 11.6851C15.4639 12.1374 14.4718 12.8003 13.636 13.636C12.8003 14.4718 12.1374 15.4639 11.6851 16.5558C11.2328 17.6478 11 18.8181 11 20Z" stroke="white" stroke-width="2" stroke-linecap="round" stroke-linejoin="round"/>
<path d="M16 19.973C18.5 18.5 21.5 19 23.5 20.5" stroke="white" stroke-width="2" stroke-linecap="round" stroke-linejoin="round"/>
<path d="M17 23C18.5 22 21 22 22 23.5" stroke="white" stroke-width="2" stroke-linecap="round" stroke-linejoin="round"/>
<path d="M15 17C17 16 21 15 25 17.5" stroke="white" stroke-width="2" stroke-linecap="round" stroke-linejoin="round"/>
</g>
<defs>
<clipPath id="clip0_105_233">
<rect width="24" height="24" fill="white" transform="translate(8 8)"/>
</clipPath>
</defs>
</svg>
