<svg width="48" height="48" viewBox="0 0 48 48" fill="none" xmlns="http://www.w3.org/2000/svg">
<g clip-path="url(#clip0_19_35)">
<path d="M35.6039 34.584C35.6039 34.584 35.7579 34.474 36.0039 34.286C39.6899 31.436 42.0039 27.306 42.0039 22.708C42.0039 14.136 33.9439 7.17999 24.0039 7.17999C14.0639 7.17999 6.00391 14.136 6.00391 22.708C6.00391 31.284 14.0639 38 24.0039 38C24.8519 38 26.2439 37.944 28.1799 37.832C30.7039 39.472 34.3879 40.818 37.6119 40.818C38.6099 40.818 39.0799 39.998 38.4399 39.162C37.4679 37.97 36.1279 36.06 35.6079 34.582L35.6039 34.584Z" stroke="white" stroke-width="2" stroke-linecap="round" stroke-linejoin="round"/>
<path d="M15 27C20 32 28 32 33 27" stroke="white" stroke-width="2" stroke-linecap="round" stroke-linejoin="round"/>
</g>
<defs>
<clipPath id="clip0_19_35">
<rect width="48" height="48" fill="white"/>
</clipPath>
</defs>
</svg>
